<svg width="24" height="24" viewBox="0 0 24 24" fill="none" xmlns="http://www.w3.org/2000/svg">
<path d="M20 12.4615V18C20 19.1046 19.1046 20 18 20H6C4.89543 20 4 19.1046 4 18V8C4 6.89543 4.89543 6 6 6L9.33333 6" stroke="#718096" stroke-width="2" stroke-linecap="round"/>
<path d="M17.5604 3.27164C18.3414 2.49059 19.6078 2.49059 20.3888 3.27164V3.27164C21.1699 4.05268 21.1699 5.31901 20.3888 6.10006L13.0388 13.45C12.7596 13.7292 12.404 13.9196 12.0169 13.997L9.2222 14.5559C9.15223 14.5699 9.09054 14.5082 9.10453 14.4383L9.66346 11.6436C9.7409 11.2564 9.93121 10.9008 10.2104 10.6216L17.5604 3.27164Z" stroke="#718096" stroke-width="2" stroke-linecap="round"/>
</svg>
